<svg width="980" height="120" xmlns="http://www.w3.org/2000/svg">
  <style>
    .contrib { fill: #ebedf0; }
    .c1 { fill: #9be9a8; }
    .c2 { fill: #40c463; }
    .c3 { fill: #30a14e; }
    .c4 { fill: #216e39; }
  </style>
  
  <!-- Background -->
  <rect width="980" height="120" fill="transparent"/>
  
  <!-- Z -->
  <rect x="10" y="10" width="10" height="10" class="c4"/>
  <rect x="22" y="10" width="10" height="10" class="c4"/>
  <rect x="34" y="10" width="10" height="10" class="c4"/>
  <rect x="46" y="10" width="10" height="10" class="c4"/>
  <rect x="46" y="22" width="10" height="10" class="c3"/>
  <rect x="34" y="34" width="10" height="10" class="c3"/>
  <rect x="22" y="46" width="10" height="10" class="c2"/>
  <rect x="10" y="58" width="10" height="10" class="c4"/>
  <rect x="22" y="58" width="10" height="10" class="c4"/>
  <rect x="34" y="58" width="10" height="10" class="c4"/>
  <rect x="46" y="58" width="10" height="10" class="c4"/>
  
  <!-- A -->
  <rect x="70" y="10" width="10" height="10" class="c4"/>
  <rect x="82" y="10" width="10" height="10" class="c4"/>
  <rect x="94" y="10" width="10" height="10" class="c4"/>
  <rect x="70" y="22" width="10" height="10" class="c3"/>
  <rect x="94" y="22" width="10" height="10" class="c3"/>
  <rect x="70" y="34" width="10" height="10" class="c3"/>
  <rect x="82" y="34" width="10" height="10" class="c3"/>
  <rect x="94" y="34" width="10" height="10" class="c3"/>
  <rect x="70" y="46" width="10" height="10" class="c2"/>
  <rect x="94" y="46" width="10" height="10" class="c2"/>
  <rect x="70" y="58" width="10" height="10" class="c4"/>
  <rect x="94" y="58" width="10" height="10" class="c4"/>
  
  <!-- I -->
  <rect x="118" y="10" width="10" height="10" class="c4"/>
  <rect x="118" y="22" width="10" height="10" class="c3"/>
  <rect x="118" y="34" width="10" height="10" class="c3"/>
  <rect x="118" y="46" width="10" height="10" class="c2"/>
  <rect x="118" y="58" width="10" height="10" class="c4"/>
  
  <!-- N -->
  <rect x="142" y="10" width="10" height="10" class="c4"/>
  <rect x="166" y="10" width="10" height="10" class="c4"/>
  <rect x="142" y="22" width="10" height="10" class="c3"/>
  <rect x="154" y="22" width="10" height="10" class="c3"/>
  <rect x="166" y="22" width="10" height="10" class="c3"/>
  <rect x="142" y="34" width="10" height="10" class="c3"/>
  <rect x="166" y="34" width="10" height="10" class="c3"/>
  <rect x="142" y="46" width="10" height="10" class="c2"/>
  <rect x="166" y="46" width="10" height="10" class="c2"/>
  <rect x="142" y="58" width="10" height="10" class="c4"/>
  <rect x="166" y="58" width="10" height="10" class="c4"/>
  
  <!-- A -->
  <rect x="190" y="10" width="10" height="10" class="c4"/>
  <rect x="202" y="10" width="10" height="10" class="c4"/>
  <rect x="214" y="10" width="10" height="10" class="c4"/>
  <rect x="190" y="22" width="10" height="10" class="c3"/>
  <rect x="214" y="22" width="10" height="10" class="c3"/>
  <rect x="190" y="34" width="10" height="10" class="c3"/>
  <rect x="202" y="34" width="10" height="10" class="c3"/>
  <rect x="214" y="34" width="10" height="10" class="c3"/>
  <rect x="190" y="46" width="10" height="10" class="c2"/>
  <rect x="214" y="46" width="10" height="10" class="c2"/>
  <rect x="190" y="58" width="10" height="10" class="c4"/>
  <rect x="214" y="58" width="10" height="10" class="c4"/>
  
  <!-- B -->
  <rect x="238" y="10" width="10" height="10" class="c4"/>
  <rect x="250" y="10" width="10" height="10" class="c4"/>
  <rect x="262" y="10" width="10" height="10" class="c4"/>
  <rect x="238" y="22" width="10" height="10" class="c3"/>
  <rect x="262" y="22" width="10" height="10" class="c3"/>
  <rect x="238" y="34" width="10" height="10" class="c3"/>
  <rect x="250" y="34" width="10" height="10" class="c3"/>
  <rect x="262" y="34" width="10" height="10" class="c3"/>
  <rect x="238" y="46" width="10" height="10" class="c2"/>
  <rect x="262" y="46" width="10" height="10" class="c2"/>
  <rect x="238" y="58" width="10" height="10" class="c4"/>
  <rect x="250" y="58" width="10" height="10" class="c4"/>
  <rect x="262" y="58" width="10" height="10" class="c4"/>
  
  <!-- Space -->
  
  <!-- S -->
  <rect x="310" y="10" width="10" height="10" class="c4"/>
  <rect x="322" y="10" width="10" height="10" class="c4"/>
  <rect x="334" y="10" width="10" height="10" class="c4"/>
  <rect x="310" y="22" width="10" height="10" class="c3"/>
  <rect x="310" y="34" width="10" height="10" class="c3"/>
  <rect x="322" y="34" width="10" height="10" class="c3"/>
  <rect x="334" y="34" width="10" height="10" class="c3"/>
  <rect x="334" y="46" width="10" height="10" class="c2"/>
  <rect x="310" y="58" width="10" height="10" class="c4"/>
  <rect x="322" y="58" width="10" height="10" class="c4"/>
  <rect x="334" y="58" width="10" height="10" class="c4"/>
  
  <!-- H -->
  <rect x="358" y="10" width="10" height="10" class="c4"/>
  <rect x="382" y="10" width="10" height="10" class="c4"/>
  <rect x="358" y="22" width="10" height="10" class="c3"/>
  <rect x="382" y="22" width="10" height="10" class="c3"/>
  <rect x="358" y="34" width="10" height="10" class="c3"/>
  <rect x="370" y="34" width="10" height="10" class="c3"/>
  <rect x="382" y="34" width="10" height="10" class="c3"/>
  <rect x="358" y="46" width="10" height="10" class="c2"/>
  <rect x="382" y="46" width="10" height="10" class="c2"/>
  <rect x="358" y="58" width="10" height="10" class="c4"/>
  <rect x="382" y="58" width="10" height="10" class="c4"/>
  
  <!-- U -->
  <rect x="406" y="10" width="10" height="10" class="c4"/>
  <rect x="430" y="10" width="10" height="10" class="c4"/>
  <rect x="406" y="22" width="10" height="10" class="c3"/>
  <rect x="430" y="22" width="10" height="10" class="c3"/>
  <rect x="406" y="34" width="10" height="10" class="c3"/>
  <rect x="430" y="34" width="10" height="10" class="c3"/>
  <rect x="406" y="46" width="10" height="10" class="c2"/>
  <rect x="430" y="46" width="10" height="10" class="c2"/>
  <rect x="406" y="58" width="10" height="10" class="c4"/>
  <rect x="418" y="58" width="10" height="10" class="c4"/>
  <rect x="430" y="58" width="10" height="10" class="c4"/>
  
  <!-- J -->
  <rect x="454" y="10" width="10" height="10" class="c4"/>
  <rect x="466" y="10" width="10" height="10" class="c4"/>
  <rect x="478" y="10" width="10" height="10" class="c4"/>
  <rect x="466" y="22" width="10" height="10" class="c3"/>
  <rect x="466" y="34" width="10" height="10" class="c3"/>
  <rect x="454" y="46" width="10" height="10" class="c2"/>
  <rect x="466" y="46" width="10" height="10" class="c2"/>
  <rect x="454" y="58" width="10" height="10" class="c4"/>
  <rect x="466" y="58" width="10" height="10" class="c4"/>
  
  <!-- A -->
  <rect x="502" y="10" width="10" height="10" class="c4"/>
  <rect x="514" y="10" width="10" height="10" class="c4"/>
  <rect x="526" y="10" width="10" height="10" class="c4"/>
  <rect x="502" y="22" width="10" height="10" class="c3"/>
  <rect x="526" y="22" width="10" height="10" class="c3"/>
  <rect x="502" y="34" width="10" height="10" class="c3"/>
  <rect x="514" y="34" width="10" height="10" class="c3"/>
  <rect x="526" y="34" width="10" height="10" class="c3"/>
  <rect x="502" y="46" width="10" height="10" class="c2"/>
  <rect x="526" y="46" width="10" height="10" class="c2"/>
  <rect x="502" y="58" width="10" height="10" class="c4"/>
  <rect x="526" y="58" width="10" height="10" class="c4"/>
  
  <!-- T -->
  <rect x="550" y="10" width="10" height="10" class="c4"/>
  <rect x="562" y="10" width="10" height="10" class="c4"/>
  <rect x="574" y="10" width="10" height="10" class="c4"/>
  <rect x="562" y="22" width="10" height="10" class="c3"/>
  <rect x="562" y="34" width="10" height="10" class="c3"/>
  <rect x="562" y="46" width="10" height="10" class="c2"/>
  <rect x="562" y="58" width="10" height="10" class="c4"/>
</svg>
